<?xml version="1.0" standalone="no"?>
<svg xmlns="http://www.w3.org/2000/svg" viewBox="0 0 52 70" width="52" height="70"><g fill="#66626d" color="#66626d" transform="translate(3.56 0) scale(0.44) "><svg width="100.0" height="100.0" x="0.0" y="0.0" viewBox="0 0 100 100"><g><g><path d="M45.785,34.697"></path></g><g><path d="M46.59,34.895c-0.1,0-0.183-0.077-0.188-0.177c-0.006-0.104,0.073-0.193,0.178-0.2c1.036-0.06,1.612-0.391,1.614-0.596    c0.002-0.253-0.767-0.628-1.977-0.638c-1.202-0.009-1.983,0.352-1.985,0.605c-0.002,0.207,0.542,0.537,1.568,0.621    c0.104,0.008,0.182,0.1,0.173,0.204c-0.009,0.104-0.102,0.182-0.203,0.172c-0.957-0.078-1.92-0.417-1.915-1    c0.005-0.656,1.2-0.99,2.366-0.979c1.172,0.009,2.355,0.362,2.35,1.019c-0.005,0.591-0.992,0.913-1.97,0.97    C46.597,34.895,46.594,34.895,46.59,34.895z"></path></g><g><g><path d="M68.545,92.082c-0.003-0.001-0.005,0-0.008,0h-6.163c-0.19,0-0.351-0.141-0.375-0.329l-0.503-3.9     c-0.014-0.104,0.018-0.209,0.085-0.289c0.048-0.059,1.222-1.422,4.492-1.422c0.276,0,0.563,0.01,0.854,0.029     c0.155,0.01,0.288,0.114,0.335,0.263l1.613,5.089c0.03,0.054,0.047,0.116,0.047,0.182C68.922,91.913,68.753,92.082,68.545,92.082     z M62.705,91.327h5.316l-1.401-4.418c-0.186-0.008-0.368-0.013-0.547-0.013c-2.357,0-3.472,0.765-3.804,1.048L62.705,91.327z"></path></g><g><path d="M61.871,88.182c-0.026,0-0.053-0.002-0.08-0.008c-0.074-0.016-7.516-1.647-13.431-6.492     c-0.159-0.131-0.184-0.366-0.056-0.527c0.08-0.1,8.204-10.014,25.155-6.36c0.066,0.017,0.245,0.076,0.347,0.287     c0.107,0.221,0.08,0.504-0.082,0.866c-2.798,6.243-6.493,10.794-6.529,10.839c-0.133,0.162-0.37,0.185-0.531,0.054     c-0.161-0.132-0.186-0.37-0.054-0.531c0.037-0.044,3.671-4.522,6.426-10.67c0.028-0.062,0.046-0.112,0.058-0.15     c-14.739-3.1-22.504,4.294-23.95,5.854c5.722,4.541,12.735,6.078,12.806,6.093c0.204,0.044,0.334,0.244,0.29,0.448     C62.201,88.061,62.045,88.182,61.871,88.182z"></path></g><g><path d="M74.037,76.754c-0.314,0-0.629-0.015-0.941-0.046c-0.207-0.021-0.358-0.207-0.337-0.414     c0.021-0.207,0.205-0.355,0.413-0.337c4.193,0.427,9.018-2.53,9.065-2.561c10.363-7.697,16.566-22.616,16.991-40.915     c0.329-14.143-4.265-19.772-7.032-21.869c-2.343-1.774-5.068-2.368-7.479-1.63c-4.431,1.358-3.715,4.293-2.725,8.356     c0.222,0.911,0.451,1.852,0.627,2.82c0.929,5.106,1.423,22.255-0.942,36.826c-1.809,11.141-8.123,12.773-11.516,13.651     c-1.01,0.261-1.882,0.486-2.133,0.844c-0.338,0.483-0.454,0.901-0.347,1.242c0.166,0.522,0.817,0.762,0.824,0.765     c0.05,0.021,1.725,0.791,3.942,1.104c0.206,0.028,0.35,0.22,0.32,0.426c-0.028,0.207-0.22,0.352-0.426,0.321     c-2.248-0.317-3.923-1.062-4.107-1.146c-0.147-0.056-1.005-0.412-1.271-1.233c-0.187-0.579-0.037-1.222,0.445-1.91     c0.41-0.586,1.312-0.819,2.562-1.143c3.452-0.893,9.23-2.387,10.96-13.041c2.352-14.487,1.865-31.508,0.944-36.57     c-0.171-0.945-0.398-1.876-0.617-2.776c-0.964-3.955-1.874-7.69,3.237-9.256c2.646-0.811,5.618-0.173,8.156,1.75     c2.883,2.184,7.668,8.009,7.331,22.488c-0.59,25.373-11.105,36.905-17.322,41.521C82.446,74.155,78.211,76.754,74.037,76.754z"></path></g><g><path d="M50.234,78.223c-4.28,0-8.647-1.244-13.023-3.717c-5.459-3.084-9.62-7.335-12.149-10.357     c-3.249-3.885-13.853-17.441-13.853-28.828c0-9.914,7.882-17.185,15.503-18.485c8.063-1.376,10.348,2.772,11.367,6.014     c0.477,1.516,1.235,3.458,2.196,5.916c1.116,2.854,2.503,6.406,4.026,10.771c2.881,8.259,3.436,10.638,5.578,20.516     c1.879,8.655,6.306,11.091,8.433,12.261c0.291,0.16,0.542,0.298,0.742,0.428c0.566,0.367,0.864,0.81,0.883,1.313     c0.032,0.855-0.769,1.49-0.859,1.56c-0.166,0.126-0.403,0.094-0.529-0.072c-0.126-0.165-0.094-0.401,0.071-0.527     c0.162-0.126,0.579-0.537,0.563-0.934c-0.011-0.243-0.191-0.481-0.539-0.707c-0.178-0.114-0.418-0.246-0.695-0.399     c-2.226-1.224-6.855-3.771-8.806-12.762c-2.136-9.841-2.688-12.211-5.554-20.427c-1.518-4.353-2.903-7.897-4.017-10.745     c-0.966-2.472-1.729-4.424-2.213-5.964c-1.013-3.223-3.124-6.759-10.52-5.496c-7.312,1.249-14.875,8.226-14.875,17.742     c0,11.132,10.468,24.508,13.676,28.343c11.841,14.151,23.256,14.217,27.614,13.587c0.207-0.028,0.398,0.113,0.428,0.32     c0.03,0.206-0.113,0.397-0.319,0.428C52.326,78.147,51.282,78.223,50.234,78.223z"></path></g><g><path d="M37.138,85.332c-5.116,0.001-11.523-1.771-19.166-7.181C6.844,70.276-0.947,50.602,0.093,44.65     c0.238-1.365,0.889-1.817,1.393-1.957c3.372-0.932,4.097,0.635,6.248,5.289c0.943,2.042,2.236,4.838,4.184,8.384     c7.792,14.189,17.583,22.652,23.227,23.679c7.03,1.278,13.192-2.543,13.253-2.582c0.176-0.111,0.409-0.059,0.521,0.118     c0.111,0.176,0.059,0.409-0.117,0.521c-0.261,0.164-6.467,4.017-13.792,2.686c-7.688-1.397-17.77-13.16-23.754-24.058     c-1.959-3.568-3.258-6.379-4.207-8.431c-2.236-4.837-2.683-5.618-5.362-4.877c-0.427,0.118-0.714,0.576-0.851,1.359     c-1.014,5.8,6.648,25.025,17.572,32.756c15.181,10.744,25.296,6.833,29.974,3.545c0.171-0.12,0.406-0.079,0.526,0.092     c0.119,0.17,0.078,0.406-0.093,0.525C46.353,83.43,42.438,85.332,37.138,85.332z"></path></g><g><path d="M39.339,91.238c-2.64,0-4.563-0.348-4.615-0.357c-0.198-0.038-0.332-0.224-0.304-0.423     c0.028-0.199,0.206-0.344,0.408-0.324c10,0.914,14.517-7.948,14.562-8.038c0.093-0.186,0.318-0.263,0.505-0.17     s0.264,0.319,0.171,0.506c-0.038,0.076-3.195,6.271-10.046,8.051c4.331-0.098,10.21-1.23,12.773-6.24     c0.095-0.186,0.322-0.259,0.508-0.164s0.259,0.322,0.164,0.507C50.593,90.2,43.899,91.238,39.339,91.238z"></path></g><g><path d="M34.795,90.887c-0.016,0-0.033-0.001-0.049-0.003c-0.132-0.017-13.357-1.833-22.03-11.92l-1.172-1.361     C3.693,68.49,0.443,64.719,4.635,60.519c0.148-0.147,0.387-0.147,0.534,0c0.147,0.146,0.148,0.386,0,0.533     c-3.698,3.705-0.8,7.068,6.946,16.059l1.172,1.36c8.48,9.863,21.426,11.648,21.555,11.665c0.207,0.026,0.353,0.216,0.326,0.423     C35.144,90.748,34.981,90.887,34.795,90.887z"></path></g><g><path d="M20.651,58.116c-0.032,0-0.064-0.004-0.096-0.013c-4.65-1.22-8.417-0.42-8.455-0.411     c-0.203,0.042-0.405-0.084-0.45-0.288c-0.044-0.203,0.084-0.404,0.288-0.449c0.16-0.035,3.972-0.85,8.808,0.419     c0.202,0.053,0.322,0.26,0.269,0.461C20.972,58.005,20.819,58.116,20.651,58.116z"></path></g><g><path d="M61.046,74.997c-0.065,0-0.129-0.034-0.164-0.096c-0.079-0.14-8.009-14.141-12.026-31.046     c-0.01-0.041-0.006-0.083,0.011-0.12c0.021-0.047,0.214-0.457,0.578-0.488c0.246-0.017,0.479,0.134,0.695,0.459     c0.134,0.202,0.285,0.782,0.646,2.193c1.163,4.558,3.885,15.234,10.977,28.725c0.049,0.093,0.014,0.207-0.079,0.255     c-0.093,0.049-0.206,0.014-0.255-0.079C54.316,61.27,51.586,50.564,50.42,45.993c-0.285-1.116-0.49-1.921-0.595-2.077     c-0.129-0.193-0.253-0.304-0.349-0.293c-0.093,0.008-0.187,0.125-0.237,0.213c4.009,16.824,11.891,30.739,11.97,30.878     c0.052,0.091,0.021,0.206-0.07,0.258C61.11,74.988,61.078,74.997,61.046,74.997z"></path></g><g><path d="M60.284,72.34c-0.079,0-0.152-0.05-0.179-0.13c-0.582-1.755-2.568-10.069-4.321-17.405     c-1.336-5.594-2.49-10.424-2.773-11.313c-0.202-0.638-0.339-0.868-0.404-0.949c-0.028,0.062-0.057,0.163-0.072,0.259     c1.136,4.498,5.817,24.757,5.865,24.961c0.023,0.102-0.04,0.203-0.142,0.227c-0.103,0.024-0.203-0.04-0.227-0.142     c-0.047-0.205-4.754-20.571-5.872-24.99c-0.006-0.023-0.007-0.047-0.005-0.07c0.025-0.189,0.114-0.631,0.41-0.658     c0.289-0.021,0.513,0.324,0.807,1.248c0.287,0.902,1.442,5.739,2.78,11.34c1.751,7.329,3.735,15.635,4.312,17.375     c0.032,0.099-0.021,0.206-0.12,0.238C60.324,72.337,60.304,72.34,60.284,72.34z"></path></g><g><path d="M62.915,74.72c-0.004,0-0.009,0-0.014-0.001c-0.104-0.007-0.182-0.098-0.175-0.201     c0.012-0.169,1.065-17.049-9.126-28.858c-0.068-0.079-0.06-0.199,0.02-0.267c0.078-0.068,0.198-0.06,0.266,0.02     c10.296,11.929,9.229,28.961,9.218,29.131C63.097,74.644,63.014,74.72,62.915,74.72z"></path></g><g><path d="M63.568,74.654c-0.003,0-0.005,0-0.008,0c-0.104-0.004-0.185-0.092-0.181-0.195c0.388-10.965-2.36-18.681-4.733-23.224     c-2.57-4.921-5.269-7.281-5.296-7.305c-0.078-0.068-0.087-0.187-0.02-0.266c0.067-0.079,0.188-0.087,0.267-0.02     c0.108,0.094,10.907,9.655,10.158,30.827C63.753,74.574,63.669,74.654,63.568,74.654z"></path></g><g><path d="M48.184,44.366c-0.642,0-1.077-0.184-1.174-0.522c-0.181-0.63,0.865-1.287,1.991-1.611     c1.127-0.322,2.362-0.32,2.543,0.31c0.136,0.475-0.45,1.041-1.494,1.444c-0.098,0.037-0.207-0.011-0.244-0.108     c-0.038-0.098,0.011-0.207,0.107-0.245c0.911-0.351,1.321-0.799,1.267-0.988c-0.069-0.243-0.914-0.384-2.077-0.051     c-1.162,0.334-1.803,0.901-1.732,1.144c0.054,0.188,0.638,0.35,1.593,0.167c0.102-0.019,0.201,0.048,0.221,0.15     c0.02,0.103-0.048,0.202-0.15,0.221C48.725,44.337,48.439,44.366,48.184,44.366z"></path></g><g><path d="M50.305,42.229c-0.052,0-0.103-0.021-0.14-0.062c-0.014-0.014-1.338-1.466-3.366-2.757     c-0.034-0.022-0.061-0.055-0.075-0.093c-0.03-0.081-0.167-0.491,0.079-0.697c0.268-0.224,0.742,0.017,1.075,0.217     c1.263,0.757,2.954,2.377,3.025,2.445c0.075,0.072,0.077,0.192,0.006,0.267c-0.072,0.075-0.192,0.078-0.267,0.005     c-0.019-0.017-1.733-1.659-2.958-2.394c-0.507-0.304-0.641-0.25-0.643-0.25c-0.015,0.025-0.007,0.126,0.018,0.217     c2.041,1.31,3.372,2.771,3.385,2.786c0.07,0.077,0.064,0.197-0.013,0.267C50.396,42.213,50.35,42.229,50.305,42.229z"></path></g><g><path d="M45.792,45.345c-0.006,0-0.012,0-0.019-0.001c-0.104-0.01-0.179-0.103-0.169-0.206c0.009-0.085,0.855-8.554,0.793-10.344     c-0.024-0.71-0.143-0.81-0.148-0.813c-0.027,0.017-0.15,0.158-0.234,0.3c-0.188,1.688-0.589,9.089-0.593,9.164     c-0.006,0.104-0.097,0.186-0.198,0.178c-0.104-0.006-0.185-0.095-0.179-0.199c0.004-0.076,0.412-7.604,0.6-9.226     c0.002-0.024,0.01-0.048,0.022-0.069c0.076-0.14,0.355-0.589,0.682-0.511c0.273,0.064,0.4,0.412,0.427,1.161     c0.062,1.816-0.761,10.046-0.796,10.395C45.971,45.272,45.889,45.345,45.792,45.345z"></path></g><g><path d="M48.167,39.437c-0.033,0-0.066-0.008-0.097-0.027c-0.09-0.053-0.119-0.169-0.065-0.259     c0.467-0.78,0.557-1.594,0.204-1.853c-0.337-0.247-1.038,0.043-1.63,0.673c-0.071,0.076-0.19,0.079-0.267,0.008     c-0.076-0.071-0.08-0.191-0.009-0.267c0.746-0.795,1.622-1.091,2.128-0.719c0.534,0.391,0.491,1.357-0.103,2.351     C48.293,39.404,48.231,39.437,48.167,39.437z"></path></g><g><path d="M46.204,40.96c-0.102,0-0.186-0.08-0.188-0.182c-0.004-0.104,0.078-0.191,0.182-0.195     c0.414-0.015,0.955-0.352,1.409-0.88c0.068-0.079,0.188-0.087,0.267-0.02s0.088,0.188,0.02,0.266     c-0.529,0.614-1.158,0.992-1.682,1.01C46.208,40.96,46.206,40.96,46.204,40.96z"></path></g><g><path d="M76.851,67.235c-0.022,0-0.044-0.001-0.067-0.006c-0.205-0.036-0.341-0.232-0.305-0.438     c0.408-2.276,0.034-4.055-1.111-5.285c-1.765-1.896-5.356-2.569-10.674-2.005c-0.968,0.104-1.65,0.193-2.434,0.32     c-0.207,0.034-0.399-0.106-0.432-0.312c-0.034-0.205,0.105-0.399,0.312-0.433c0.797-0.13,1.491-0.221,2.474-0.325     c5.566-0.593,9.37,0.161,11.307,2.241c1.315,1.413,1.754,3.409,1.302,5.932C77.188,67.107,77.029,67.235,76.851,67.235z"></path></g><g><path d="M57.533,60.823c-0.165,0-0.316-0.108-0.363-0.275c-0.057-0.2,0.061-0.408,0.262-0.465     c1.074-0.303,1.889-0.505,3.354-0.772c0.205-0.038,0.401,0.099,0.438,0.304s-0.098,0.401-0.303,0.438     c-1.437,0.263-2.234,0.461-3.286,0.757C57.602,60.819,57.566,60.823,57.533,60.823z"></path></g><g><path d="M55.676,61.386c-0.157,0-0.303-0.099-0.357-0.255c-0.067-0.197,0.038-0.412,0.234-0.479l0.138-0.047     c0.166-0.058,0.166-0.058,0.342-0.111l0.171-0.052c0.199-0.06,0.41,0.052,0.471,0.251c0.062,0.2-0.051,0.41-0.25,0.472     l-0.173,0.052c-0.161,0.049-0.161,0.049-0.315,0.102l-0.137,0.048C55.758,61.379,55.716,61.386,55.676,61.386z"></path></g><g><path d="M50.428,63.774c-0.114,0-0.228-0.052-0.302-0.15c-0.125-0.166-0.092-0.403,0.074-0.528     c0.052-0.039,1.299-0.969,4.198-2.035c0.196-0.071,0.413,0.028,0.484,0.224c0.072,0.196-0.028,0.413-0.224,0.485     c-2.795,1.027-3.993,1.919-4.003,1.928C50.587,63.749,50.507,63.774,50.428,63.774z"></path></g><g><path d="M53.116,43.341c-0.074,0-0.144-0.043-0.174-0.115c-0.041-0.096,0.004-0.207,0.1-0.248     c0.842-0.358,1.349-0.983,1.204-1.484c-0.077-0.271-0.338-0.478-0.733-0.584c-0.43-0.115-0.955-0.096-1.479,0.055     c-0.823,0.236-1.482,0.767-1.601,1.29c-0.023,0.101-0.125,0.166-0.227,0.142c-0.102-0.023-0.165-0.124-0.142-0.226     c0.15-0.661,0.9-1.292,1.866-1.568c0.589-0.17,1.187-0.189,1.681-0.056c0.528,0.142,0.883,0.442,0.999,0.844     c0.2,0.698-0.384,1.494-1.42,1.936C53.166,43.336,53.141,43.341,53.116,43.341z"></path></g><g><path d="M51.771,43.623c-0.325,0-0.629-0.05-0.893-0.15c-0.098-0.037-0.146-0.146-0.109-0.243     c0.036-0.098,0.146-0.145,0.244-0.11c0.386,0.146,0.905,0.165,1.425,0.051c0.102-0.023,0.202,0.042,0.225,0.144     c0.022,0.102-0.042,0.202-0.144,0.225C52.264,43.595,52.012,43.623,51.771,43.623z"></path></g></g></g></svg></g><path fill="#5c4e75" fill-rule="nonzero" d="M2.62 17.38L2.62 2.23Q1.85 2.11 1.16 1.80Q0.48 1.49 0 0.82L0 0.82L0.79 0Q1.30 0.48 1.99 0.72Q2.69 0.96 3.65 0.96L3.65 0.96Q4.78 0.96 5.92 0.84Q7.06 0.72 8.57 0.72L8.57 0.72Q10.49 0.72 12.02 1.37Q13.56 2.02 14.64 3.16Q15.72 4.30 16.31 5.83Q16.90 7.37 16.90 9.17L16.90 9.17Q16.90 10.97 16.31 12.52Q15.72 14.06 14.64 15.19Q13.56 16.32 12.02 16.97Q10.49 17.62 8.57 17.62L8.57 17.62Q6.72 17.62 5.56 17.58Q4.39 17.54 3.74 17.50L3.74 17.50Q2.95 17.45 2.62 17.38L2.62 17.38ZM8.57 2.04L8.57 2.04Q7.25 2.04 6.17 2.15Q5.09 2.26 4.08 2.28L4.08 2.28L4.08 16.18Q4.82 16.22 5.92 16.26Q7.01 16.30 8.57 16.30L8.57 16.30Q10.15 16.30 11.42 15.78Q12.70 15.26 13.60 14.32Q14.50 13.37 14.98 12.06Q15.46 10.75 15.46 9.17L15.46 9.17Q15.46 7.58 14.98 6.28Q14.50 4.97 13.60 4.03Q12.70 3.10 11.42 2.57Q10.15 2.04 8.57 2.04ZM35.90 0L36.70 0.82Q36.14 1.58 35.30 1.91Q34.46 2.23 33.60 2.28L33.60 2.28Q33.96 2.76 34.38 3.44Q34.80 4.13 35.16 4.99Q35.52 5.86 35.75 6.90Q35.98 7.94 35.98 9.17L35.98 9.17Q35.98 10.97 35.40 12.52Q34.82 14.06 33.76 15.19Q32.69 16.32 31.20 16.97Q29.71 17.62 27.89 17.62L27.89 17.62Q26.04 17.62 24.55 16.97Q23.06 16.32 22.00 15.18Q20.93 14.04 20.35 12.50Q19.78 10.97 19.78 9.17L19.78 9.17Q19.78 7.37 20.35 5.82Q20.93 4.27 22.00 3.14Q23.06 2.02 24.55 1.37Q26.04 0.72 27.89 0.72L27.89 0.72Q29.40 0.72 30.66 0.84Q31.92 0.96 33.05 0.96L33.05 0.96Q34.01 0.96 34.70 0.72Q35.40 0.48 35.90 0L35.90 0ZM34.54 9.17L34.54 9.17Q34.54 7.66 34.18 6.47Q33.82 5.28 33.35 4.40Q32.88 3.53 32.42 2.99Q31.97 2.45 31.78 2.26L31.78 2.26Q30.89 2.21 29.92 2.12Q28.94 2.04 27.86 2.04L27.86 2.04Q26.38 2.04 25.15 2.56Q23.93 3.07 23.06 4.02Q22.20 4.97 21.72 6.28Q21.24 7.58 21.24 9.17L21.24 9.17Q21.24 10.75 21.72 12.06Q22.20 13.37 23.08 14.30Q23.95 15.24 25.18 15.77Q26.40 16.30 27.89 16.30L27.89 16.30Q29.38 16.30 30.60 15.78Q31.82 15.26 32.70 14.32Q33.58 13.37 34.06 12.06Q34.54 10.75 34.54 9.17ZM51.12 17.38L49.54 17.38L47.86 13.10Q47.59 12.43 47.26 11.90Q46.92 11.38 46.45 11.00Q45.98 10.63 45.36 10.44Q44.74 10.25 43.92 10.25L43.92 10.25L41.62 10.25L41.62 17.38L40.15 17.38L40.15 2.23Q39.38 2.11 38.70 1.80Q38.02 1.49 37.54 0.82L37.54 0.82L38.33 0Q38.83 0.48 39.53 0.72Q40.22 0.96 41.18 0.96L41.18 0.96Q41.74 0.96 42.12 0.92Q42.50 0.89 42.89 0.84Q43.27 0.79 43.74 0.76Q44.21 0.72 44.98 0.72L44.98 0.72Q46.06 0.72 46.94 1.08Q47.83 1.44 48.47 2.08Q49.10 2.71 49.46 3.58Q49.82 4.44 49.82 5.47L49.82 5.47Q49.82 7.13 49.01 8.20Q48.19 9.26 46.80 9.70L46.80 9.70Q47.59 10.06 48.08 10.68Q48.58 11.30 48.96 12.19L48.96 12.19L51.12 17.38ZM44.90 2.04L44.90 2.04Q44.14 2.04 43.68 2.08Q43.22 2.11 42.90 2.15Q42.58 2.18 42.29 2.23Q42 2.28 41.62 2.28L41.62 2.28L41.62 8.93L44.95 8.93Q45.70 8.93 46.33 8.69Q46.97 8.45 47.42 8.00Q47.88 7.56 48.13 6.91Q48.38 6.26 48.38 5.47L48.38 5.47Q48.38 3.89 47.44 2.96Q46.49 2.04 44.90 2.04Z" transform="translate(0, 52)"></path></svg>